{
    "asset" : {
        "generator" : "Khronos glTF Blender I/O v1.2.75",
        "version" : "2.0"
    },
    "scene" : 0,
    "scenes" : [
        {
            "name" : "Scene",
            "nodes" : [
                0
            ]
        }
    ],
    "nodes" : [
        {
            "mesh" : 0,
            "name" : "Cube.001",
            "rotation" : [
                0,
                0,
                0,
                -1
            ],
            "translation" : [
                0,
                2.999952793121338,
                0
            ]
        }
    ],
    "materials" : [
        {
            "doubleSided" : true,
            "emissiveFactor" : [
                0,
                0,
                0
            ],
            "name" : "Material.225",
            "pbrMetallicRoughness" : {
                "baseColorFactor" : [
                    1,
                    1,
                    1,
                    1
                ],
                "metallicFactor" : 1,
                "roughnessFactor" : 1
            }
        },
        {
            "doubleSided" : true,
            "emissiveFactor" : [
                0,
                0,
                0
            ],
            "name" : "Material.226",
            "pbrMetallicRoughness" : {
                "baseColorFactor" : [
                    1,
                    1,
                    1,
                    1
                ],
                "metallicFactor" : 1,
                "roughnessFactor" : 1
            }
        }
    ],
    "meshes" : [
        {
            "name" : "Cube.216",
            "primitives" : [
                {
                    "attributes" : {
                        "POSITION" : 0,
                        "NORMAL" : 1,
                        "TEXCOORD_0" : 2
                    },
                    "indices" : 3,
                    "material" : 0
                },
                {
                    "attributes" : {
                        "POSITION" : 4,
                        "NORMAL" : 5,
                        "TEXCOORD_0" : 6
                    },
                    "indices" : 7,
                    "material" : 1
                }
            ]
        }
    ],
    "accessors" : [
        {
            "bufferView" : 0,
            "componentType" : 5126,
            "count" : 58,
            "max" : [
                2.384185791015625e-07,
                1.0000001192092896,
                1.000000238418579
            ],
            "min" : [
                -1.0000001192092896,
                -1.000000238418579,
                -1.0000001192092896
            ],
            "type" : "VEC3"
        },
        {
            "bufferView" : 1,
            "componentType" : 5126,
            "count" : 58,
            "type" : "VEC3"
        },
        {
            "bufferView" : 2,
            "componentType" : 5126,
            "count" : 58,
            "type" : "VEC2"
        },
        {
            "bufferView" : 3,
            "componentType" : 5123,
            "count" : 60,
            "type" : "SCALAR"
        },
        {
            "bufferView" : 4,
            "componentType" : 5126,
            "count" : 56,
            "max" : [
                2.384185791015625e-07,
                -0.9999997615814209,
                1.0000005960464478
            ],
            "min" : [
                -1.0000001192092896,
                -3,
                -0.9999995231628418
            ],
            "type" : "VEC3"
        },
        {
            "bufferView" : 5,
            "componentType" : 5126,
            "count" : 56,
            "type" : "VEC3"
        },
        {
            "bufferView" : 6,
            "componentType" : 5126,
            "count" : 56,
            "type" : "VEC2"
        },
        {
            "bufferView" : 7,
            "componentType" : 5123,
            "count" : 60,
            "type" : "SCALAR"
        }
    ],
    "bufferViews" : [
        {
            "buffer" : 0,
            "byteLength" : 696,
            "byteOffset" : 0
        },
        {
            "buffer" : 0,
            "byteLength" : 696,
            "byteOffset" : 696
        },
        {
            "buffer" : 0,
            "byteLength" : 464,
            "byteOffset" : 1392
        },
        {
            "buffer" : 0,
            "byteLength" : 120,
            "byteOffset" : 1856
        },
        {
            "buffer" : 0,
            "byteLength" : 672,
            "byteOffset" : 1976
        },
        {
            "buffer" : 0,
            "byteLength" : 672,
            "byteOffset" : 2648
        },
        {
            "buffer" : 0,
            "byteLength" : 448,
            "byteOffset" : 3320
        },
        {
            "buffer" : 0,
            "byteLength" : 120,
            "byteOffset" : 3768
        }
    ],
    "buffers" : [
        {
            "byteLength" : 3888,
            "uri" : "data:application/octet-stream;base64,"
        }
    ]
}
